Patient4_TMGait_0pt4_01_left_33_EMG.mot
version=1
nRows=33
nColumns=33
inDegrees=no
endheader
time	1LAddLong	2LGlutMax	3LGlutMed	4LIliopsoas	5LSemiMemb	6LBicFemLong	7LRecFem	8LVastMed	9LVastLat	10LGasMed	11LTibAnt	12lTibPost	13LPeroneusLong	14LSol	15LExtDigLong	16LFlexDigLong	17RAddLong	18RGlutMax	19RGlutMed	20RIliopsoas	21RSemiMemb	22RBicFemLong	23RRecFem	24RVastMed	25RVastLat	26RGasMed	27RTibAnt	28RTibPost	29RPeroneusLong	30RSol	31RExtDigLong	32RFlexDigLong
40.76	-0.007019	-0.12558	-0.018921	-0.020447	-0.023193	0.019836	-0.103	0.001831	0.045929	-0.009613	0.023499	0.007935	0.021057	-0.045929	0.054932	-0.003357	-0.004578	0.86594	0.52017	-0.045624	-0.16037	-0.061646	-0.003967	-0.13825	-0.053711	0.039368	0.026093	-0.007629	0.98831	0.30533	0.002136	-0.005951
40.761	0.00061	-0.12848	-0.069122	-0.009766	-0.022278	-0.000916	-0.13245	0.006561	0.071106	0.013123	0.041656	0.007477	0.020905	-0.058289	0.007629	0.001068	-0.001526	0.8548	0.37354	-0.018768	-0.10803	-0.028381	-0.012665	-0.055084	-0.021973	0.040588	0.1297	-0.10788	-0.001984	0.019989	-0.000153	0.002441
40.762	0.007782	-0.11841	-0.084839	-0.00885	-0.041962	-0.023041	-0.16083	0.004883	0.097198	0.013428	0.0383	0.006256	0.016785	-0.023346	-0.007782	-0.000916	0.007324	0.8725	0.14847	0.058289	0.003052	-0.080872	0.02594	-0.000763	-0.051727	0.050507	-0.04364	0.071106	0.625	-0.18845	0.000458	-0.00351
40.763	0.01236	-0.1059	-0.084229	-0.004883	-0.023193	-0.014648	-0.17487	0.011444	0.10986	-0.007629	-0.030212	0.009766	0.025482	-0.052338	-0.018005	0.000305	0.00885	0.84061	0.2179	0.071564	0.10712	-0.14832	0.070801	-0.022736	-0.097046	0.039673	-0.12177	-0.016785	-0.31998	-0.11246	0.005188	-0.007629
40.764	0.02243	-0.10681	-0.059967	0.006866	-0.006866	-0.023956	-0.16892	0.006256	0.11566	-0.017853	-0.010223	0.004425	0.018921	-0.02182	-0.018768	-0.001984	0.023346	0.80368	0.053406	0.056763	0.035858	-0.16846	0.081177	-0.039978	-0.13855	-0.02182	-0.095062	-0.05188	-0.36926	-0.10239	0.003052	-0.003662
40.765	0.022888	-0.08316	-0.032654	0.003662	-0.0177	0.020447	-0.17716	0.004883	0.12192	-0.033875	-0.006866	0.005646	0.010986	-0.039978	0.050964	-0.004425	0.019379	0.64209	0.091248	0.050659	0.010071	-0.16769	-0.079041	-0.032501	-0.12619	0.049591	-0.047607	-0.050201	-0.22278	-0.16525	0.002136	-0.01297
40.766	0.019531	-0.11963	-0.007782	-0.008698	-0.019226	0.017395	-0.18631	0.006714	0.14481	-0.013885	-0.021667	0.00946	0.015411	-0.048676	0.009766	0.009918	0.008392	0.53818	0.46478	0.049591	-0.016632	-0.1297	-0.02594	0.004425	-0.068054	0.067444	-0.059204	-0.033264	-0.44449	-0.34775	0.006104	-0.012817
40.767	0.009613	-0.072021	-0.013123	0.00473	-0.006561	-0.002136	-0.18631	0.007477	0.14664	-0.018768	-0.022125	-0.005188	0.039978	0.001068	0.050049	0.003052	0.004883	0.58258	0.60516	0.02655	-0.019989	-0.000153	0.1358	0.0177	-0.069275	0.047607	-0.038757	-0.054932	-0.4837	-0.32501	0	-0.005188
40.768	0.010376	-0.066223	-0.007172	-0.002747	-0.00412	-0.00412	-0.20798	0.001373	0.14893	-0.020447	-0.020447	0.023956	0.009766	-0.041199	0.08667	0.014343	0.011292	0.60303	0.74661	-0.061646	-0.000458	0.036621	0.21561	0.020294	-0.066376	0.037537	-0.02243	-0.025787	-0.48553	0.15289	0.000153	-0.005798
40.769	0.012665	-0.061646	-0.0177	-0.001221	-0.012054	0.004883	-0.20554	0.011292	0.13718	-0.023499	0.000763	0.007477	-0.001984	-0.039368	0.12314	0.002747	0.002289	0.53375	0.53116	-0.085297	0.029449	0.000458	0.25146	-0.02594	-0.091553	0.054932	-0.18372	-0.066681	1.1174	0.37979	0.002899	-0.010376
40.77	0.007172	-0.047607	-0.041351	-0.00061	-0.016479	0.006409	-0.19638	0.007935	0.14816	-0.037994	0.022278	0.009155	-0.012512	0.033875	0.018463	0.01236	0.02243	0.44952	0.16098	-0.028992	0.00824	-0.048981	0.11536	-0.11368	-0.047607	0.044403	0.038757	-0.038605	0.081177	0.12131	0.006409	-0.017242
40.771	0.00946	-0.062866	-0.077057	-0.007324	-0.037231	0.01297	-0.21103	0.012817	0.15213	-0.049286	0.004272	0.004425	0.01358	-0.041351	-0.083313	0.007019	0.014191	0.36102	0.11505	-0.002289	0.006561	-0.070953	-0.2536	-0.20142	0.022583	0.001678	0.12726	-0.007172	-0.67612	-0.14755	0.006561	-0.011292
40.772	0.016174	-0.11414	-0.075073	-0.007935	-0.044708	-0.005798	-0.19501	0.001526	0.15045	-0.030212	0.001068	0.007172	0.019226	-0.077972	-0.06134	0.008545	-0.006866	0.26794	0.28778	-0.027924	-0.010681	-0.058899	-0.20538	-0.06897	0.086823	0.028381	0.19226	-0.051575	-0.64499	-0.34103	0.002747	-0.015106
40.773	0.007935	-0.10147	-0.043945	0.000763	-0.033875	-0.032349	-0.21194	0.001526	0.15289	0.016022	0.01297	0.003052	0.024109	-0.002136	-0.041504	0.004578	0.005493	0.23651	-0.095367	0.040436	-0.059814	-0.042114	0.012207	-0.012665	0.10513	0.047455	0.13733	-0.20111	-1.1821	-0.19379	0.001068	-0.007629
40.774	0.002441	-0.071869	-0.05249	-0.00824	-0.019379	-0.03952	-0.1889	0.005035	0.15793	0.050201	0.004272	0.007477	0.018616	-0.010376	-0.00412	0.002899	0.026855	0.24612	-0.080109	0.063171	-0.031586	-0.026703	0.070343	-0.030975	0.063782	0.02182	-0.085144	0.002747	0.55344	-0.13123	0.000916	-0.015411
40.775	0.014496	-0.060272	-0.00061	-0.004578	-0.012512	-0.035706	-0.21118	0.009766	0.15213	0.035553	0.019226	0.009003	0.002747	-0.085449	0.003204	0.01297	0.025024	0.25925	0.23407	0.03067	0.046387	0.014038	0.058899	-0.015106	0.13626	0.015717	-0.13519	0.069275	0.4039	-0.27802	-0.000153	-0.014038
40.776	0.005188	-0.063019	0.017242	0.011292	-0.009613	-0.036316	-0.19684	-0.031738	0.15289	-0.00061	0.014343	0.003967	-0.021515	-0.053101	-0.001831	0.018768	-0.0177	0.15579	0.22919	0.013123	0.088959	0.06073	-0.093994	-0.039825	0.12207	0.022278	-0.28015	0.010681	1.0387	-0.31799	-0.002441	-0.00824
40.777	0.011444	-0.057068	0.021362	0.000153	-0.00351	-0.012054	-0.19852	-0.019684	0.17822	-0.010529	-0.016785	0.009918	-0.004883	-0.041351	-0.002289	0.004425	-0.031281	0.11017	0.15915	0.033722	-0.1062	0.037384	-0.077972	0.044708	0.065155	0.010376	-0.17838	-0.003052	-0.22568	-0.18875	-0.003204	-0.005951
40.778	0.005951	-0.085602	0.017548	-0.002899	-0.014038	0.015259	-0.18524	0.008087	0.17639	-0.014801	-0.06073	0.008392	0.016632	-0.028839	-0.003052	0.013123	-0.009003	-0.038757	0.001526	0.011749	-0.059662	-0.060883	0.045471	0.015411	0.03067	-0.004578	0.020294	0.003357	0.15579	0.003357	0.005188	-0.004883
40.779	0.012512	-0.034332	0.039825	0.007629	-0.016479	0.013885	-0.17838	0.01236	0.17548	-0.025635	-0.090027	0.004578	0.002747	0.003662	-0.009766	0.007019	0.007935	-0.045471	0.083313	0.020905	0.048218	-0.13748	0.14175	-0.005035	-0.018005	0.013428	0.24887	-0.009918	0.057526	0.050659	0.004425	-0.011902
40.78	0.003815	0.002289	0.026093	-0.00885	-0.027466	0.016479	-0.19577	-0.015411	0.17685	-0.025787	-0.062408	0.006256	-0.006866	0.059204	-0.021057	0.007782	0.01236	0.14282	0.6189	-0.053253	0.045166	-0.1207	0.18951	-0.016327	-0.058441	0.023193	0.11078	-0.016022	0.09903	0.023956	0.000763	-0.013885
40.781	0.01358	-0.034332	-0.070038	0.005951	-0.055847	-0.022888	-0.18936	-0.009308	0.1738	-0.018311	0.05127	0.006866	-0.014801	0.054321	-0.006256	0.013733	0.016632	0.10284	0.84686	0.017548	-0.0737	-0.10239	0.11353	-0.034637	-0.058441	0.018005	-0.075989	-0.019836	0.6073	-0.069122	-0.003052	-0.006409
40.782	0.008087	0.019531	-0.095978	-0.003967	-0.023499	-0.075684	-0.19241	-0.013885	0.17319	-0.012665	0.096588	0.006561	-0.033417	0.01236	-0.006104	0.015564	0.019379	-0.03006	1.1699	-0.045166	-0.13184	-0.10788	0.049438	0.013123	0.082092	-0.027771	0.003662	-0.024109	-0.26977	-0.12268	-0.001221	0.004425
40.783	0.012512	-0.040741	-0.066071	-0.002136	-0.016632	-0.042267	-0.17914	0.004425	0.16144	-0.024567	0.029907	0.005646	-0.007019	-0.058594	-0.006409	0.01236	0.007477	-0.075989	1.0881	-0.09079	-0.14633	-0.12054	-0.097351	0.075836	0.10239	-0.096741	-0.053558	-0.032196	-0.41046	-0.13397	0	0.002441
40.784	0.003967	-0.016022	-0.037842	0.006409	-0.021667	-0.017395	-0.17441	0.017853	0.15549	-0.021667	0.011444	-0.001221	0.028839	-0.11154	0.00412	0.010376	-0.009155	-0.058289	0.41473	-0.051575	-0.19531	0.12177	-0.036621	0.013885	0.063324	-0.14496	-0.040894	-0.04425	-1.2582	-0.056	-0.002136	-0.009766
40.785	-0.003662	-0.001373	-0.036469	-0.002594	-0.039215	-0.025024	-0.13504	-0.003662	0.1532	-0.023499	0.006866	0.000153	0.033875	-0.1358	0.005035	0.009918	-0.016632	-0.1236	0.14084	-0.050201	-0.19562	0.19577	0.029907	-0.011292	0.076904	-0.15976	-0.084991	-0.11307	-0.45212	-0.10468	-0.000916	-0.005798
40.786	-0.003052	0.021515	-0.098724	0.003357	-0.029907	-0.011902	-0.18265	0.014191	0.14923	-0.020752	0.008698	0.001678	0.010834	-0.13077	0.016632	0.011139	-0.003204	-0.23468	-0.25818	0.007477	0.17364	0.13321	0.033417	0.059204	0.06424	-0.1619	-0.077209	-0.27771	0.62546	0.089264	-0.001831	-0.009613
40.787	-0.000153	0.024109	-0.066376	0.001984	-0.025177	-0.041046	-0.1535	-0.012665	0.15259	-0.028076	0.002136	0.003052	-0.001984	-0.049438	0.018768	-0.003967	0.010834	-0.34821	-0.47745	0.068207	0.1741	-0.16113	-0.009613	0.050201	0.06424	-0.27359	-0.010529	0.21103	0.35706	0.52689	0.002747	-0.015106
40.788	0.003815	0.00946	0.011749	0.028992	-0.030212	-0.035553	-0.16296	-0.00412	0.15259	-0.040588	0.005493	0.003052	-0.003662	0.02182	0.006561	-0.000916	0.001984	-0.48584	-0.80872	-0.024872	0.044708	-0.29831	0.05127	-0.068665	0.037994	-0.19104	0.033875	0.12604	0.15457	0.59097	0.004272	-0.010071
40.789	0.011444	-0.004578	0.003357	-0.00412	-0.027466	-0.0177	-0.16312	0.013733	0.15045	-0.055542	0.003662	0.000305	0.010834	-0.053406	0.002899	0.008698	-0.003052	-0.51498	-0.90347	-0.081024	-0.076752	-0.30304	0.043488	-0.005493	0.093384	-0.075378	0.1149	-0.33096	0.11215	0.20737	0.003204	-0.017242
40.79	0.020447	-0.020752	-0.024567	-0.021973	-0.04364	-0.019531	-0.16495	0.00412	0.15274	-0.033417	0.006256	-0.002594	0.010223	0.056458	-0.002899	0.002899	-0.007935	-0.65582	-0.64468	-0.054016	0.068054	-0.1059	0.038757	0.06073	0.082245	0.005188	0.005188	0.11963	0.31555	-0.21668	0.00061	-0.005493
40.791	0.019531	-0.014191	-0.00824	-0.00885	0.026245	-0.015564	-0.17914	-0.005951	0.14755	-0.024567	0.000763	0.006561	0.01297	0.16129	-0.006409	0.00946	-0.008392	-0.68787	-0.36041	-0.059662	0.16296	0.015717	0.02594	0.097656	0.079651	0.24429	-0.10071	0.16052	0.31021	-0.22705	0.005798	-0.000305
40.792	0.012817	-0.000916	-0.029144	-0.008698	0.041046	-0.025177	-0.1709	-0.003204	0.15366	-0.019684	0.005951	-0.006104	0.016479	0.085449	0.00885	0.002136	-0.037079	-0.63431	-0.30777	0.068817	0.21652	0.17944	0.005951	0.07431	0.041046	0.11826	-0.010986	0.028992	-0.43472	-0.3241	-0.00061	0.012207
